<?xml version="1.0" encoding="utf-8"?>
<!-- Generator: Adobe Illustrator 22.1.0, SVG Export Plug-In . SVG Version: 6.00 Build 0)  -->
<svg version="1.1" xmlns="http://www.w3.org/2000/svg" xmlns:xlink="http://www.w3.org/1999/xlink" x="0px" y="0px"
	 viewBox="0 0 200 200" style="enable-background:new 0 0 200 200;" xml:space="preserve">
<style type="text/css">
	.st0{fill:#D3D3D3;}
</style>
<g id="Layer_2">
</g>
<g id="Layer_1">
	<g>
		<path class="st0" d="M153.1,190H46.9c-9.1,0-16.4-7.4-16.4-16.4V26.5c0-9.1,7.4-16.4,16.4-16.4h53.9c4.6,0,8.3,3.7,8.3,8.3
			c0,4.6-3.7,8.3-8.3,8.3H46.9L47,173.5l106.1-0.1L153,78.3c0-4.6,3.7-8.3,8.3-8.3c4.6,0,8.3,3.7,8.3,8.3v95.3
			C169.5,182.6,162.1,190,153.1,190z"/>
		<path class="st0" d="M128.2,119.7H71.7c-4.6,0-8.3-3.7-8.3-8.3c0-4.6,3.7-8.3,8.3-8.3h56.6c4.6,0,8.3,3.7,8.3,8.3
			C136.5,115.9,132.8,119.7,128.2,119.7z"/>
		<path class="st0" d="M128.2,152.7H71.7c-4.6,0-8.3-3.7-8.3-8.3c0-4.6,3.7-8.3,8.3-8.3h56.6c4.6,0,8.3,3.7,8.3,8.3
			C136.5,149,132.8,152.7,128.2,152.7z"/>
		<path class="st0" d="M161.3,86.6C161.3,86.5,161.3,86.5,161.3,86.6h-52.4c-9.1,0-16.4-7.4-16.4-16.4V18.3c0-3.3,2-6.4,5.1-7.6
			c3.1-1.3,6.6-0.6,9,1.8l59.8,59.3c1.9,1.5,3.2,3.9,3.2,6.5C169.6,82.8,165.9,86.6,161.3,86.6z M109,38.2v32l32.2-0.1L109,38.2z"/>
	</g>
</g>
</svg>
